<?xml version="1.0" standalone="no"?>
<!DOCTYPE svg PUBLIC "-//W3C//DTD SVG 20010904//EN"
 "http://www.w3.org/TR/2001/REC-SVG-20010904/DTD/svg10.dtd">
<svg version="1.0" xmlns="http://www.w3.org/2000/svg"
 width="1340.000000pt" height="1340.000000pt" viewBox="0 0 1340.000000 1340.000000"
 preserveAspectRatio="xMidYMid meet">
<metadata>
Created by potrace 1.14, written by Peter Selinger 2001-2017
</metadata>
<g transform="translate(0.000000,1340.000000) scale(0.100000,-0.100000)"
fill="#ff1482" stroke="none">
<path d="M4862 10945 c-55 -24 -80 -60 -86 -122 -3 -35 19 -97 46 -127 5 -6
47 -65 94 -131 46 -66 87 -124 92 -130 4 -5 34 -48 67 -95 33 -47 63 -86 67
-88 4 -2 8 -8 8 -13 0 -6 5 -15 11 -22 6 -7 48 -66 94 -132 46 -66 88 -125 93
-130 5 -6 17 -24 28 -40 10 -17 21 -32 24 -35 6 -6 42 -58 54 -78 6 -10 -284
-12 -1455 -12 -804 0 -1464 -2 -1467 -4 -2 -3 -10 -2 -18 1 -18 7 -78 -31 -99
-64 -24 -36 -29 -88 -14 -126 10 -26 99 -158 152 -228 36 -46 57 -79 57 -89 0
-5 3 -10 8 -10 4 0 18 -17 32 -37 14 -21 55 -80 92 -133 38 -52 72 -102 78
-110 6 -8 41 -58 78 -110 37 -52 78 -112 92 -132 14 -21 28 -38 33 -38 4 0 7
-5 7 -11 0 -6 12 -25 26 -44 l25 -33 -1476 0 c-1408 0 -1477 -1 -1512 -19 -55
-27 -78 -65 -78 -127 0 -45 6 -61 41 -112 75 -109 117 -169 123 -174 3 -3 11
-12 16 -22 6 -9 41 -60 79 -115 38 -54 85 -120 105 -148 19 -27 39 -55 45 -62
6 -7 36 -48 66 -93 30 -45 71 -103 90 -130 19 -26 41 -56 48 -67 59 -85 255
-362 267 -375 7 -9 22 -29 31 -45 10 -15 27 -38 38 -50 11 -13 16 -23 12 -23
-4 0 -1 -7 6 -15 24 -27 34 -40 93 -125 33 -47 62 -87 65 -90 3 -3 30 -41 59
-85 30 -44 59 -81 63 -83 4 -2 8 -8 8 -13 0 -9 46 -75 79 -115 5 -6 20 -29 35
-52 15 -23 33 -50 41 -60 22 -26 225 -313 225 -318 0 -4 27 -37 48 -59 6 -8
12 -18 12 -22 0 -5 8 -18 18 -29 9 -11 22 -27 27 -36 6 -9 39 -57 75 -108 36
-50 91 -128 123 -173 32 -45 65 -91 73 -102 8 -11 49 -69 91 -130 42 -60 80
-111 85 -113 4 -2 8 -9 8 -16 0 -7 9 -21 20 -31 11 -10 20 -24 20 -31 0 -7 4
-14 8 -16 7 -3 36 -43 144 -196 13 -18 31 -42 41 -54 9 -11 17 -25 17 -29 0
-4 6 -14 13 -21 7 -7 33 -42 57 -78 24 -36 49 -70 54 -77 28 -32 36 -43 36
-47 0 -5 96 -141 127 -181 4 -5 26 -37 48 -70 22 -33 43 -62 46 -65 7 -6 109
-152 124 -178 6 -9 15 -21 21 -27 5 -5 23 -30 39 -54 15 -25 32 -50 37 -55 5
-6 47 -65 94 -131 46 -66 91 -128 99 -138 8 -9 15 -20 15 -23 0 -3 10 -19 23
-34 45 -57 57 -74 57 -83 0 -6 6 -15 13 -21 8 -6 94 -126 193 -266 98 -140
182 -256 186 -258 5 -2 8 -8 8 -14 0 -6 13 -27 28 -47 16 -20 50 -67 77 -106
26 -38 51 -72 54 -75 3 -3 24 -32 46 -65 22 -33 44 -64 48 -70 4 -5 30 -41 57
-80 27 -38 54 -75 60 -82 5 -7 10 -15 10 -17 0 -3 7 -14 15 -23 8 -10 28 -37
45 -61 53 -74 117 -98 187 -71 36 14 53 32 146 164 43 60 83 117 90 125 7 9
26 36 43 60 17 25 46 65 63 90 17 25 43 63 58 85 14 22 29 42 32 45 3 3 22 28
41 55 19 28 38 52 42 53 4 2 8 8 8 12 0 10 262 383 293 418 11 12 16 22 11 22
-5 0 -4 4 3 8 6 4 33 39 59 77 26 39 52 75 56 80 5 6 35 48 67 95 32 47 66 93
74 102 9 9 21 27 28 39 6 13 16 28 21 33 5 6 36 49 69 96 33 47 66 93 74 103
8 9 15 19 15 22 0 4 33 51 108 154 28 39 80 113 115 164 35 52 43 56 52 28 3
-11 19 -34 35 -53 16 -18 30 -39 30 -45 0 -7 3 -13 8 -13 4 0 23 -25 42 -55
19 -30 38 -55 43 -55 4 0 7 -4 7 -10 0 -8 58 -94 98 -145 4 -5 19 -26 32 -45
13 -19 29 -40 35 -47 31 -37 35 -43 34 -49 0 -3 8 -17 20 -30 12 -13 21 -27
21 -29 0 -3 5 -11 10 -18 14 -16 133 -183 193 -271 26 -37 47 -65 47 -60 0 5
7 -1 15 -13 12 -17 73 -40 96 -35 4 1 19 3 34 6 44 8 64 29 143 144 25 37 48
69 52 72 4 3 15 20 25 38 11 17 23 32 27 32 4 0 8 7 8 15 0 8 5 15 10 15 6 0
10 6 10 14 0 8 3 16 8 18 4 1 27 32 51 68 25 36 48 67 51 70 3 3 35 48 71 100
73 107 71 104 102 145 12 17 40 56 61 87 21 32 47 66 57 77 11 11 19 23 19 27
0 4 18 31 40 60 22 29 40 57 40 63 0 5 7 11 15 15 8 3 15 12 15 21 0 8 4 15 8
15 4 0 16 15 27 33 10 17 23 37 27 42 30 35 148 207 148 215 0 6 4 10 10 10 5
0 17 15 26 33 9 17 20 34 24 37 4 3 33 43 65 90 33 47 62 87 65 90 10 9 50 69
50 75 0 3 7 13 16 23 13 13 121 165 196 276 7 10 20 28 29 40 9 11 28 38 42
59 l26 38 48 -67 c26 -37 54 -73 61 -80 6 -7 12 -15 12 -19 0 -4 39 -61 88
-128 88 -124 119 -167 137 -195 6 -9 16 -22 23 -30 7 -8 19 -27 27 -43 9 -16
20 -29 25 -29 5 0 12 -9 15 -21 7 -20 23 -44 52 -74 7 -8 13 -18 13 -24 0 -6
5 -11 10 -11 6 0 10 -6 10 -14 0 -8 3 -16 8 -18 4 -1 27 -32 52 -68 24 -36 49
-70 55 -76 5 -7 19 -24 29 -39 26 -35 66 -55 110 -55 35 0 82 16 102 35 8 8
249 345 306 429 7 10 28 38 46 62 17 23 32 47 32 53 0 5 3 11 8 13 4 2 41 50
81 108 41 58 86 121 100 140 14 19 31 42 36 51 13 22 272 390 305 434 14 18
31 41 38 51 55 81 155 222 167 237 8 9 15 22 15 27 0 6 4 10 8 10 5 0 14 10
19 23 6 12 18 31 28 42 9 11 47 64 85 118 37 54 75 108 84 120 9 12 39 54 66
92 27 39 54 75 60 82 5 7 10 17 10 23 0 5 3 10 8 10 4 0 16 15 27 32 11 18 27
42 35 54 8 12 35 50 60 85 24 35 52 73 62 83 10 11 18 26 18 33 0 7 4 13 8 13
5 0 26 27 47 60 21 33 42 60 47 60 4 0 8 5 8 11 0 6 14 28 30 49 17 21 30 43
30 49 0 6 4 11 9 11 6 0 16 11 23 24 15 29 512 734 537 763 6 7 11 15 11 18 0
3 5 11 11 18 25 29 179 249 179 256 0 4 9 16 21 27 12 10 28 32 36 49 9 16 19
32 22 35 4 3 18 21 31 40 14 19 28 40 33 45 6 8 328 465 377 535 6 8 33 47 60
85 27 39 54 77 60 85 90 129 220 314 265 374 17 23 34 49 38 59 3 9 11 17 17
17 5 0 10 7 10 15 0 8 5 15 10 15 6 0 10 7 10 15 0 8 4 15 9 15 5 0 12 8 16
19 3 10 14 29 25 42 11 13 23 29 28 34 4 6 34 48 66 95 33 47 64 88 70 92 6 5
7 8 1 8 -6 0 -5 3 1 8 6 4 42 51 80 106 38 54 82 117 98 140 16 22 43 61 60
86 17 25 37 51 44 58 6 7 12 17 12 20 0 4 11 20 25 35 14 15 23 27 19 27 -3 0
0 7 7 16 7 9 13 40 13 70 0 62 -22 100 -75 126 -32 16 -299 17 -4229 17 -3615
0 -4200 -2 -4228 -14z m7452 -594 c32 -30 28 -65 -14 -126 -46 -67 -258 -368
-268 -380 -4 -5 -19 -26 -32 -45 -13 -19 -28 -39 -33 -45 -4 -5 -93 -131 -197
-280 -104 -148 -193 -274 -197 -280 -5 -5 -31 -41 -57 -80 -107 -153 -141
-200 -148 -203 -5 -2 -8 -8 -8 -14 0 -5 -6 -16 -12 -23 -7 -8 -28 -36 -46 -62
-18 -26 -66 -95 -107 -153 -41 -58 -79 -112 -85 -120 -13 -19 -196 -278 -215
-305 -8 -11 -34 -47 -57 -80 -24 -33 -70 -98 -102 -145 -33 -47 -63 -86 -68
-88 -4 -2 -8 -8 -8 -14 0 -6 -13 -27 -30 -48 -16 -21 -30 -40 -30 -43 0 -3
-11 -18 -25 -33 -14 -15 -25 -33 -25 -40 0 -7 -4 -14 -9 -16 -5 -1 -35 -41
-67 -88 -31 -47 -61 -86 -66 -88 -4 -2 -8 -8 -8 -13 0 -9 -8 -21 -37 -54 -7
-7 -13 -16 -13 -20 0 -5 -30 -47 -77 -110 -5 -6 -28 -39 -52 -75 -25 -36 -48
-67 -51 -70 -3 -3 -16 -21 -28 -40 -11 -20 -30 -46 -41 -59 -11 -13 -35 -47
-53 -75 -18 -28 -35 -53 -38 -56 -11 -8 -124 -170 -138 -196 -7 -13 -17 -24
-23 -24 -5 0 -9 -4 -9 -9 0 -8 -136 -203 -422 -606 -16 -22 -36 -51 -46 -65
-9 -14 -40 -57 -69 -97 -29 -40 -53 -75 -53 -78 0 -5 -7 -15 -35 -48 -6 -7
-26 -34 -44 -60 -37 -54 -67 -73 -104 -63 -25 6 -45 31 -198 251 -38 55 -77
108 -85 118 -8 10 -29 41 -45 68 -17 27 -34 49 -37 49 -4 0 -13 12 -19 27 -11
23 -10 30 5 51 9 14 22 32 27 41 6 9 12 18 16 21 3 3 21 28 40 55 18 28 36 52
39 55 3 3 17 23 32 45 14 22 96 139 182 260 85 121 161 229 168 239 7 10 22
31 33 45 11 14 40 55 65 91 24 36 48 67 52 68 4 2 8 7 8 12 0 7 168 249 197
285 9 10 143 201 200 284 17 25 35 51 40 56 5 6 24 33 43 60 19 28 37 52 42
53 4 2 8 10 8 18 0 8 5 14 10 14 6 0 10 5 10 10 0 6 5 16 11 23 9 11 189 263
221 311 7 10 20 28 29 40 9 11 42 59 75 106 32 47 62 90 67 95 13 16 225 316
254 360 14 22 29 42 32 45 13 11 51 70 51 80 0 5 5 10 10 10 6 0 15 10 20 23
6 12 24 40 41 62 16 22 37 51 47 65 9 14 21 30 25 35 5 6 35 48 68 95 33 47
78 112 102 145 56 79 65 103 61 154 -5 51 -35 95 -81 116 -31 15 -240 17
-2393 17 l-2358 0 -19 25 c-10 14 -29 40 -43 58 -14 19 -41 57 -60 86 -19 28
-42 59 -51 68 -8 10 -18 24 -21 32 -3 8 -34 51 -68 97 -77 105 -93 139 -77
172 7 14 22 29 33 35 14 7 1063 10 3216 10 l3196 0 26 -24z m-2403 -1150 c9 0
23 -15 32 -33 21 -44 13 -61 -117 -243 -58 -83 -111 -157 -116 -165 -6 -8 -42
-59 -80 -112 -39 -54 -70 -102 -70 -108 0 -5 -5 -10 -10 -10 -6 0 -15 -10 -20
-22 -9 -20 -130 -191 -160 -225 -5 -7 -10 -15 -10 -17 0 -3 -7 -14 -15 -23 -8
-10 -46 -63 -84 -118 -38 -55 -74 -104 -78 -110 -5 -5 -40 -55 -78 -110 -38
-55 -73 -101 -77 -103 -4 -2 -8 -8 -8 -13 0 -10 -102 -152 -112 -157 -5 -2 -8
-8 -8 -13 0 -13 -41 -72 -57 -82 -7 -4 -13 -14 -13 -22 0 -7 -4 -15 -8 -17 -4
-1 -32 -39 -62 -83 -30 -44 -60 -86 -66 -92 -7 -7 -22 -29 -35 -50 -13 -21
-26 -40 -29 -43 -5 -5 -32 -42 -135 -190 -21 -30 -52 -73 -67 -95 -16 -22 -47
-67 -70 -100 -23 -33 -44 -62 -47 -65 -4 -3 -27 -35 -51 -72 -25 -38 -48 -68
-52 -68 -5 0 -8 -5 -8 -10 0 -6 -21 -40 -47 -75 -27 -36 -64 -88 -83 -116 -19
-27 -51 -72 -70 -99 -19 -26 -41 -56 -48 -67 -53 -78 -203 -290 -212 -300 -6
-7 -25 -34 -42 -60 -18 -27 -35 -50 -38 -53 -4 -3 -15 -20 -25 -37 -11 -18
-23 -33 -27 -33 -4 0 -8 -5 -8 -11 0 -6 -10 -24 -22 -39 -13 -15 -30 -37 -38
-50 -8 -12 -34 -48 -57 -81 -24 -32 -43 -61 -43 -64 0 -3 -8 -13 -17 -24 -10
-10 -38 -48 -63 -85 -64 -93 -237 -338 -255 -358 -8 -10 -12 -18 -10 -18 3 0
1 -6 -5 -12 -6 -7 -45 -60 -86 -118 -41 -58 -81 -113 -89 -123 -8 -9 -15 -21
-15 -25 0 -5 -8 -17 -18 -28 -17 -19 -47 -61 -67 -93 -27 -44 -69 -91 -87 -97
-49 -15 -78 14 -247 261 -19 28 -37 52 -41 55 -3 3 -10 12 -13 20 -4 8 -21 33
-37 55 -17 22 -46 64 -66 92 l-36 53 59 87 c32 49 61 90 64 93 3 3 23 30 44
60 61 89 109 154 122 168 7 7 13 17 13 22 0 5 6 15 13 22 6 7 25 33 42 58 16
25 32 47 35 50 3 3 32 43 65 90 32 47 62 87 67 88 4 2 8 8 8 13 0 8 61 98 85
126 5 6 44 60 85 120 41 59 78 110 82 111 5 2 8 8 8 13 0 6 5 15 11 22 5 7 37
50 70 97 33 47 67 94 75 105 7 11 64 92 126 180 62 88 115 162 118 165 3 3 23
32 45 65 22 32 60 87 85 121 25 34 52 72 60 84 8 12 38 55 66 94 27 39 80 114
117 166 37 52 74 104 81 115 134 186 246 348 246 355 0 5 4 10 8 12 5 2 24 25
43 52 19 27 49 70 67 95 18 25 54 78 80 116 26 39 52 74 59 78 7 4 13 15 13
22 0 8 4 15 8 15 4 0 16 15 27 33 10 17 23 37 27 42 28 33 98 136 98 144 0 5
5 11 10 13 16 5 18 80 3 118 -15 37 -43 65 -83 81 -17 7 -788 11 -2386 11
l-2361 0 -22 39 c-12 21 -26 39 -32 39 -5 0 -9 5 -9 10 0 9 -36 66 -50 80 -3
3 -13 16 -22 30 -10 14 -44 63 -77 110 -34 47 -75 105 -92 130 -38 54 -40 96
-7 125 23 20 36 20 3218 19 1757 -1 3202 -2 3211 -3z m-2356 -1193 c30 -35 23
-64 -34 -145 -23 -32 -46 -65 -51 -73 -24 -34 -132 -186 -143 -200 -7 -9 -25
-36 -42 -60 -16 -25 -36 -51 -42 -58 -7 -7 -13 -17 -13 -22 0 -5 -6 -15 -13
-22 -13 -14 -61 -79 -122 -168 -21 -30 -41 -57 -44 -60 -4 -3 -21 -28 -38 -55
-18 -28 -40 -59 -50 -70 -10 -11 -24 -32 -32 -47 -8 -16 -18 -28 -23 -28 -4 0
-8 -5 -8 -11 0 -6 -6 -17 -12 -24 -7 -8 -29 -37 -48 -65 -19 -28 -56 -80 -83
-115 -26 -35 -47 -67 -47 -70 0 -3 -4 -11 -10 -18 -47 -57 -60 -76 -60 -86 0
-7 -7 -14 -15 -17 -8 -3 -17 -14 -20 -25 -4 -10 -12 -25 -19 -31 -7 -7 -32
-42 -57 -78 -24 -36 -54 -78 -66 -95 -12 -16 -85 -120 -162 -230 -77 -110
-144 -204 -149 -210 -7 -8 -141 -198 -226 -319 -11 -17 -24 -33 -27 -36 -3 -3
-18 -25 -34 -49 -15 -25 -32 -49 -37 -55 -16 -18 -356 -500 -383 -543 -5 -9
-17 -24 -25 -33 -8 -10 -35 -48 -60 -85 -25 -36 -51 -73 -57 -80 -7 -8 -13
-17 -13 -22 0 -4 -10 -19 -22 -33 -13 -14 -36 -45 -53 -70 -16 -25 -34 -49
-38 -55 -7 -9 -98 -138 -224 -318 -27 -37 -53 -73 -58 -80 -6 -7 -27 -37 -48
-67 -20 -30 -64 -93 -98 -140 -33 -47 -68 -96 -77 -110 -9 -14 -21 -29 -25
-35 -4 -5 -67 -93 -139 -195 -72 -101 -138 -190 -147 -197 -38 -29 -85 -5
-131 66 -8 13 -30 43 -47 67 -18 23 -33 45 -33 48 0 3 -6 14 -14 23 -34 42
-86 114 -86 119 0 3 -6 11 -12 18 -7 8 -40 53 -73 101 -33 49 -68 96 -77 106
-10 11 -18 22 -18 25 0 3 -49 74 -108 157 -135 189 -345 487 -386 547 -30 43
-40 57 -61 83 -5 7 -14 20 -20 29 -5 9 -45 65 -87 125 -43 59 -82 115 -88 123
-6 8 -59 85 -119 170 -61 85 -136 192 -168 238 -32 45 -65 91 -73 102 -18 22
-111 155 -125 179 -5 9 -12 18 -16 21 -3 3 -25 34 -50 70 -24 36 -48 69 -52
75 -14 18 -130 181 -207 291 -72 103 -100 143 -210 299 -27 39 -73 104 -102
145 -28 41 -60 84 -70 94 -10 11 -18 25 -18 32 0 7 -4 14 -8 16 -6 2 -91 120
-356 497 -17 23 -35 50 -41 60 -5 9 -13 18 -16 21 -6 6 -139 194 -154 218 -5
10 -13 19 -16 22 -3 3 -21 28 -39 55 -19 28 -37 52 -42 53 -4 2 -8 8 -8 14 0
5 -9 22 -21 36 -94 122 -137 193 -133 220 1 6 2 18 3 25 0 7 12 19 25 27 22
13 416 15 3226 15 l3202 0 23 -27z"/>
</g>
</svg>
